<svg width="218" height="207" viewBox="0 0 218 207" fill="none" xmlns="http://www.w3.org/2000/svg">
<path id="80" fill-rule="evenodd" clip-rule="evenodd" d="M160.46 12.2764C166.594 15.3797 167.98 23.2568 163.921 28.8051C160.129 33.9879 152.965 35.1929 147.177 32.4117C132.117 25.1758 115.011 22.4007 98.1119 24.6002C77.353 27.302 58.4206 37.3129 45.067 52.6489C31.7134 67.985 24.913 87.5269 26.0137 107.402C27.1143 127.277 36.0356 146.034 51.0095 159.957C65.9835 173.879 85.9172 181.951 106.86 182.572C127.803 183.193 148.227 176.318 164.084 163.31C179.941 150.301 190.074 132.109 192.475 112.338C194.363 96.789 191.36 81.1565 183.998 67.3589C180.705 61.1871 181.867 53.2325 187.623 49.2571C192.994 45.5477 200.406 46.6708 203.761 52.2702C215.114 71.2189 219.901 93.1998 217.247 115.053C214.13 140.724 200.973 164.346 180.384 181.236C159.795 198.126 133.277 207.053 106.084 206.247C78.8911 205.44 53.0089 194.96 33.5665 176.883C14.1241 158.805 2.54053 134.45 1.11145 108.644C-0.317626 82.8384 8.51202 57.4649 25.8506 37.5524C43.1891 17.6398 67.7712 4.64146 94.725 1.13341C117.43 -1.82161 140.422 2.13902 160.46 12.2764ZM61.9775 121.538C63.9048 122.398 66.1866 122.818 68.8229 122.797C71.4365 122.777 73.8138 122.338 75.9548 121.48C78.1071 120.611 79.8763 119.432 81.2624 117.944C82.6485 116.455 83.4933 114.778 83.7968 112.912C84.0353 111.444 83.9111 110.099 83.4242 108.875C82.9372 107.64 82.1791 106.618 81.15 105.808C80.1321 104.986 78.9348 104.462 77.558 104.234L77.5563 104.012C79.4624 103.633 81.1202 102.745 82.5298 101.348C83.9506 99.939 84.8124 98.2617 85.1154 96.3161C85.4078 94.4956 85.1281 92.8727 84.2759 91.4476C83.4351 90.0223 82.1479 88.9017 80.4142 88.0857C78.6804 87.2698 76.6318 86.8711 74.2682 86.8897C71.9274 86.9081 69.7772 87.3227 67.8176 88.1336C65.8693 88.9444 64.2643 90.0536 63.0026 91.4613C61.7409 92.8689 60.9581 94.4775 60.6541 96.2867C60.3397 98.2097 60.6428 99.9062 61.5635 101.376C62.484 102.835 63.8322 103.745 65.6077 104.106L65.6095 104.328C64.1795 104.566 62.8314 105.094 61.565 105.911C60.2986 106.727 59.2327 107.741 58.3672 108.953C57.5129 110.153 56.9722 111.47 56.7448 112.903C56.4415 114.803 56.756 116.505 57.6884 118.01C58.6205 119.502 60.0503 120.679 61.9775 121.538ZM72.7126 116.698C71.7615 117.138 70.6893 117.362 69.4962 117.371C68.3599 117.38 67.3867 117.183 66.5767 116.781C65.778 116.378 65.194 115.808 64.8246 115.073C64.4551 114.326 64.3461 113.468 64.4976 112.501C64.6599 111.466 65.0561 110.548 65.6862 109.748C66.3276 108.947 67.1295 108.316 68.0918 107.854C69.0654 107.38 70.126 107.139 71.2737 107.13C72.3873 107.121 73.3436 107.329 74.1424 107.755C74.9412 108.181 75.5311 108.772 75.912 109.531C76.293 110.289 76.4023 111.175 76.2397 112.187C76.0884 113.177 75.7034 114.067 75.0845 114.856C74.4656 115.633 73.675 116.248 72.7126 116.698ZM74.7039 101.12C73.8662 101.535 72.9417 101.747 71.9304 101.755C70.9759 101.763 70.1506 101.582 69.4545 101.212C68.7696 100.831 68.2654 100.301 67.9419 99.6216C67.6296 98.9308 67.5438 98.1247 67.6843 97.2031C67.8361 96.2814 68.1877 95.4661 68.739 94.7572C69.2902 94.0483 69.9847 93.4917 70.8224 93.0874C71.6715 92.6716 72.6074 92.4597 73.6301 92.4517C74.6073 92.444 75.4326 92.625 76.106 92.9947C76.7907 93.353 77.289 93.8661 77.6011 94.5342C77.9131 95.2022 77.9876 95.9971 77.8244 96.9189C77.6725 97.8406 77.321 98.6672 76.77 99.3988C76.2302 100.119 75.5414 100.693 74.7039 101.12ZM93.8303 120.743C95.7164 122.16 98.1254 122.857 101.057 122.834C103.989 122.811 106.62 122.074 108.949 120.624C111.279 119.162 113.222 117.073 114.781 114.356C116.339 111.628 117.421 108.347 118.027 104.512C118.634 100.689 118.574 97.4453 117.849 94.7804C117.134 92.1155 115.834 90.0859 113.948 88.6916C112.062 87.2973 109.665 86.6116 106.756 86.6344C103.835 86.6573 101.21 87.3826 98.8806 88.81C96.5621 90.226 94.6237 92.2811 93.0652 94.9752C91.5182 97.6692 90.4358 100.922 89.818 104.734C89.2116 108.557 89.2543 111.824 89.9461 114.534C90.6492 117.245 91.944 119.314 93.8303 120.743ZM107.292 113.648C105.796 115.671 104.043 116.691 102.032 116.707C100.714 116.717 99.6306 116.282 98.7828 115.403C97.9348 114.511 97.3788 113.175 97.1149 111.393C96.8508 109.599 96.9297 107.36 97.3518 104.675C97.9799 100.715 99.0474 97.7351 100.554 95.7345C102.073 93.7226 103.826 92.7087 105.815 92.6931C107.144 92.6827 108.233 93.1173 109.081 93.9971C109.929 94.8768 110.479 96.202 110.731 97.9728C110.995 99.7322 110.916 101.932 110.493 104.572C109.855 108.599 108.787 111.625 107.292 113.648ZM141.002 113.366L140.676 115.21C140.437 116.598 140.515 117.882 140.911 119.06C141.318 120.239 142.041 121.176 143.081 121.873C144.12 122.581 145.47 122.928 147.129 122.915C148.788 122.902 150.24 122.533 151.484 121.807C152.728 121.092 153.738 120.141 154.513 118.953C155.287 117.765 155.8 116.477 156.051 115.089L156.377 113.245C156.627 111.834 156.549 110.545 156.142 109.378C155.746 108.199 155.023 107.261 153.972 106.565C152.933 105.869 151.578 105.527 149.907 105.54C148.271 105.553 146.831 105.922 145.586 106.648C144.342 107.362 143.326 108.314 142.54 109.502C141.765 110.678 141.253 111.966 141.002 113.366ZM145.636 115.171L145.963 113.327C146.104 112.497 146.427 111.721 146.933 111.001C147.439 110.281 148.197 109.917 149.208 109.91C150.288 109.901 150.956 110.254 151.211 110.968C151.467 111.682 151.524 112.454 151.383 113.285L151.056 115.128C150.915 115.959 150.603 116.728 150.12 117.437C149.637 118.145 148.873 118.503 147.827 118.512C146.793 118.52 146.131 118.167 145.841 117.453C145.563 116.739 145.495 115.979 145.636 115.171ZM126.204 93.5046L125.946 95.3475C125.752 96.7468 125.853 98.0301 126.249 99.1976C126.656 100.365 127.367 101.297 128.384 101.993C129.401 102.69 130.739 103.032 132.398 103.019C134.057 103.006 135.52 102.648 136.788 101.944C138.055 101.23 139.076 100.284 139.851 99.1077C140.637 97.9311 141.127 96.6374 141.32 95.2267L141.578 93.3837C141.772 91.9617 141.671 90.667 141.275 89.4996C140.88 88.3323 140.168 87.4003 139.139 86.7038C138.123 86.0072 136.779 85.6655 135.109 85.6786C133.484 85.6915 132.038 86.055 130.77 86.7696C129.503 87.4841 128.477 88.4297 127.69 89.6064C126.904 90.7831 126.409 92.0824 126.204 93.5046ZM130.94 95.3083L131.198 93.4653C131.305 92.6576 131.612 91.8882 132.117 91.1568C132.634 90.4255 133.399 90.0558 134.41 90.0479C135.489 90.0394 136.151 90.3922 136.396 91.1062C136.64 91.8202 136.703 92.5925 136.584 93.423L136.326 95.266C136.208 96.1078 135.896 96.883 135.39 97.5916C134.895 98.2887 134.131 98.6413 133.097 98.6494C132.085 98.6573 131.441 98.3158 131.163 97.6248C130.896 96.9223 130.821 96.1502 130.94 95.3083ZM153.424 86.745L123.904 121.887L128.608 121.85L158.129 86.7081L153.424 86.745Z" fill="url(#paint0_radial_33_24)"/>
<defs>
<radialGradient id="paint0_radial_33_24" cx="0" cy="0" r="1" gradientUnits="userSpaceOnUse" gradientTransform="translate(58.1826 -0.600237) rotate(51.9812) scale(262.419 276.275)">
<stop stop-color="#8B13D0"/>
<stop offset="0.505" stop-color="#932BCF"/>
<stop offset="0.9999" stop-color="#190064"/>
</radialGradient>
</defs>
</svg>
