<svg width="218" height="207" viewBox="0 0 218 207" fill="none" xmlns="http://www.w3.org/2000/svg">
<path id="95" fill-rule="evenodd" clip-rule="evenodd" d="M160.188 12.8757C166.322 15.9791 167.708 23.8561 163.648 29.4045C159.856 34.5873 152.693 35.7922 146.904 33.011C131.845 25.7752 114.739 23.0001 97.8399 25.1996C77.0809 27.9013 58.1485 37.9122 44.7949 53.2483C31.4413 68.5843 24.6409 88.1263 25.7416 108.001C26.8422 127.876 35.7635 146.634 50.7374 160.556C65.7114 174.479 85.6451 182.55 106.588 183.171C127.531 183.792 147.955 176.917 163.812 163.909C179.669 150.901 189.802 132.708 192.203 112.937C194.091 97.3884 191.088 81.7558 183.726 67.9582C180.433 61.7864 181.595 53.8319 187.351 49.8565C192.722 46.1471 200.134 47.2702 203.489 52.8696C214.842 71.8182 219.629 93.7992 216.975 115.652C213.858 141.324 200.701 164.945 180.112 181.835C159.523 198.726 133.005 207.652 105.812 206.846C78.619 206.04 52.7368 195.559 33.2944 177.482C13.852 159.405 2.26846 135.05 0.839364 109.244C-0.58973 83.4378 8.23994 58.0643 25.5785 38.1517C42.9171 18.2391 67.4991 5.24083 94.4529 1.73279C117.158 -1.22224 140.15 2.73838 160.188 12.8757ZM78.6226 88.3902C77.0155 87.7778 75.2915 87.4789 73.4507 87.4933C70.9279 87.5018 68.6364 88.0141 66.5762 89.0303C64.5159 90.0466 62.8166 91.4463 61.4783 93.2296C60.1399 95.0015 59.2809 97.0311 58.9011 99.3182C58.5436 101.548 58.7069 103.536 59.3911 105.28C60.0753 107.025 61.1714 108.397 62.6793 109.397C64.1872 110.396 65.9979 110.888 68.1115 110.871C69.3614 110.861 70.5645 110.67 71.7207 110.297C72.8768 109.913 73.9407 109.365 74.9124 108.653C75.8955 107.941 76.7296 107.07 77.4147 106.042L77.6844 105.648C77.0984 109.176 76.0123 111.957 74.426 113.992C72.8396 116.027 70.8874 117.054 68.5693 117.072C67.2511 117.083 66.2088 116.756 65.4422 116.091C64.6756 115.427 64.2758 114.441 64.2428 113.135L57.118 113.191C57.0539 115.157 57.4598 116.915 58.3356 118.465C59.2227 120.004 60.505 121.215 62.1825 122.1C63.8599 122.985 65.8634 123.418 68.1929 123.399C70.3178 123.383 72.2975 122.958 74.1319 122.125C75.9662 121.281 77.6101 120.064 79.0636 118.473C80.5284 116.882 81.7575 114.94 82.7509 112.648C83.7556 110.356 84.4965 107.748 84.9736 104.824C85.4937 101.604 85.5349 98.8874 85.097 96.6748C84.6705 94.4622 83.8895 92.6785 82.7538 91.3238C81.6181 89.969 80.2411 88.9911 78.6226 88.3902ZM69.8895 94.1863C70.9417 93.5984 72.0588 93.2999 73.2405 93.2906C74.3428 93.2819 75.2766 93.5303 76.0419 94.0357C76.8072 94.5297 77.358 95.2072 77.6943 96.0682C78.0419 96.9178 78.1347 97.8773 77.9726 98.9468C77.8431 99.8228 77.5542 100.66 77.106 101.459C76.669 102.247 76.1119 102.944 75.4349 103.552C74.7691 104.148 74.0228 104.62 73.1959 104.967C72.3804 105.315 71.5238 105.492 70.6261 105.499C69.5353 105.508 68.6129 105.271 67.8591 104.788C67.1166 104.294 66.5771 103.616 66.2408 102.755C65.9045 101.894 65.8117 100.929 65.9624 99.8594C66.1345 98.6307 66.5691 97.525 67.2659 96.5422C67.974 95.548 68.8486 94.7627 69.8895 94.1863ZM93.6646 121.87C95.4215 122.742 97.4988 123.169 99.8964 123.15C102.499 123.13 104.864 122.589 106.992 121.526C109.12 120.464 110.87 119.018 112.242 117.189C113.614 115.36 114.478 113.268 114.835 110.913C115.192 108.683 115.035 106.707 114.362 104.985C113.689 103.263 112.605 101.913 111.109 100.936C109.624 99.9595 107.83 99.4793 105.728 99.4958C104.194 99.5078 102.764 99.8032 101.439 100.382C100.114 100.96 99.0743 101.684 98.3198 102.554L98.1152 102.556L100.416 93.793L115.654 93.6733L116.595 87.6316L95.2549 87.7993L90.6781 106.245L97.0621 107.371C97.7156 106.65 98.552 106.075 99.5714 105.647C100.591 105.207 101.617 104.983 102.651 104.975C103.833 104.965 104.835 105.225 105.658 105.752C106.48 106.268 107.076 106.991 107.447 107.92C107.818 108.849 107.906 109.928 107.712 111.157C107.528 112.374 107.104 113.446 106.441 114.371C105.789 115.297 104.977 116.025 104.004 116.555C103.031 117.074 101.964 117.338 100.805 117.347C99.3395 117.359 98.1488 116.948 97.2331 116.114C96.3173 115.269 95.9224 114.176 96.0482 112.834L88.8893 112.89C88.621 114.892 88.9133 116.668 89.7664 118.218C90.6196 119.769 91.9189 120.986 93.6646 121.87ZM138.621 113.982L138.295 115.826C138.056 117.214 138.134 118.497 138.529 119.676C138.936 120.855 139.66 121.792 140.699 122.489C141.739 123.197 143.088 123.544 144.747 123.531C146.406 123.518 147.858 123.148 149.102 122.423C150.347 121.708 151.356 120.757 152.131 119.569C152.906 118.381 153.419 117.093 153.669 115.705L153.996 113.861C154.246 112.45 154.168 111.161 153.761 109.994C153.365 108.815 152.642 107.877 151.591 107.181C150.551 106.485 149.196 106.143 147.526 106.156C145.889 106.169 144.449 106.538 143.205 107.264C141.96 107.978 140.945 108.93 140.159 110.118C139.384 111.294 138.871 112.582 138.621 113.982ZM143.255 115.787L143.581 113.943C143.722 113.112 144.046 112.337 144.552 111.617C145.057 110.897 145.816 110.533 146.827 110.525C147.907 110.517 148.574 110.87 148.83 111.584C149.085 112.298 149.143 113.07 149.001 113.901L148.675 115.744C148.534 116.575 148.222 117.344 147.739 118.053C147.255 118.761 146.491 119.119 145.446 119.127C144.412 119.136 143.75 118.783 143.46 118.069C143.182 117.355 143.113 116.595 143.255 115.787ZM123.822 94.1205L123.564 95.9635C123.371 97.3628 123.472 98.6461 123.867 99.8135C124.274 100.981 124.986 101.913 126.003 102.609C127.02 103.306 128.358 103.648 130.017 103.635C131.676 103.622 133.139 103.263 134.406 102.56C135.673 101.846 136.694 100.9 137.469 99.7237C138.255 98.547 138.745 97.2533 138.939 95.8427L139.197 93.9997C139.39 92.5777 139.289 91.283 138.894 90.1156C138.498 88.9482 137.786 88.0163 136.758 87.3198C135.741 86.6232 134.398 86.2815 132.727 86.2946C131.102 86.3074 129.656 86.671 128.389 87.3855C127.122 88.1001 126.095 89.0456 125.309 90.2223C124.523 91.399 124.027 92.6984 123.822 94.1205ZM128.558 95.9242L128.817 94.0812C128.924 93.2736 129.23 92.5041 129.736 91.7728C130.253 91.0415 131.017 90.6718 132.029 90.6638C133.108 90.6554 133.77 91.0081 134.014 91.7221C134.258 92.4362 134.321 93.2084 134.203 94.0389L133.945 95.8819C133.826 96.7238 133.514 97.499 133.008 98.2075C132.514 98.9046 131.749 99.2572 130.715 99.2653C129.704 99.2733 129.059 98.9318 128.781 98.2407C128.514 97.5383 128.44 96.7661 128.558 95.9242ZM151.043 87.3609L121.523 122.503L126.227 122.466L155.747 87.324L151.043 87.3609Z" fill="url(#paint0_radial_33_27)"/>
<defs>
<radialGradient id="paint0_radial_33_27" cx="0" cy="0" r="1" gradientUnits="userSpaceOnUse" gradientTransform="translate(57.9105 -0.000861121) rotate(51.9812) scale(262.419 276.275)">
<stop stop-color="#8B13D0"/>
<stop offset="0.505" stop-color="#932BCF"/>
<stop offset="0.9999" stop-color="#190064"/>
</radialGradient>
</defs>
</svg>
