<svg width="218" height="207" viewBox="0 0 218 207" fill="none" xmlns="http://www.w3.org/2000/svg">
<path id="85" fill-rule="evenodd" clip-rule="evenodd" d="M160.188 12.8757C166.322 15.9791 167.708 23.8561 163.648 29.4045C159.856 34.5873 152.693 35.7922 146.904 33.011C131.845 25.7752 114.739 23.0001 97.8399 25.1996C77.0809 27.9013 58.1485 37.9122 44.7949 53.2483C31.4413 68.5843 24.6409 88.1263 25.7416 108.001C26.8422 127.876 35.7635 146.634 50.7374 160.556C65.7114 174.479 85.6451 182.55 106.588 183.171C127.531 183.792 147.955 176.917 163.812 163.909C179.669 150.901 189.802 132.708 192.203 112.937C194.091 97.3884 191.088 81.7558 183.726 67.9582C180.433 61.7864 181.595 53.8319 187.351 49.8565C192.722 46.1471 200.134 47.2702 203.489 52.8696C214.842 71.8182 219.629 93.7992 216.975 115.652C213.858 141.324 200.701 164.945 180.112 181.835C159.523 198.726 133.005 207.652 105.812 206.846C78.619 206.04 52.7368 195.559 33.2944 177.482C13.852 159.405 2.26846 135.05 0.839365 109.244C-0.589729 83.4378 8.23994 58.0643 25.5785 38.1517C42.9171 18.2391 67.4991 5.24083 94.4529 1.73279C117.158 -1.22224 140.15 2.73838 160.188 12.8757ZM61.7055 122.138C63.6327 122.998 65.9145 123.417 68.5508 123.397C71.1644 123.376 73.5417 122.937 75.6827 122.079C77.835 121.21 79.6042 120.031 80.9903 118.543C82.3764 117.055 83.2212 115.378 83.5247 113.512C83.7632 112.044 83.639 110.698 83.1521 109.475C82.6651 108.24 81.907 107.217 80.8779 106.407C79.8601 105.586 78.6627 105.061 77.2859 104.833L77.2841 104.611C79.1903 104.233 80.8482 103.345 82.2577 101.947C83.6785 100.538 84.5403 98.8611 84.8432 96.9155C85.1358 95.0949 84.856 93.4721 84.0038 92.0469C83.163 90.6217 81.8758 89.5011 80.1421 88.6851C78.4083 87.8692 76.3597 87.4705 73.9961 87.489C71.6553 87.5074 69.5051 87.9221 67.5455 88.7329C65.5972 89.5437 63.9923 90.653 62.7305 92.0606C61.4688 93.4683 60.686 95.0768 60.382 96.8861C60.0676 98.8091 60.3707 100.506 61.2914 101.976C62.2119 103.434 63.56 104.344 65.3357 104.705L65.3374 104.927C63.9074 105.165 62.5592 105.693 61.2929 106.51C60.0265 107.327 58.9606 108.341 58.0951 109.552C57.2409 110.752 56.7001 112.069 56.4727 113.503C56.1694 115.403 56.4839 117.105 57.4162 118.609C58.3485 120.102 59.7782 121.278 61.7055 122.138ZM72.4405 117.298C71.4894 117.737 70.4172 117.961 69.2241 117.971C68.0878 117.98 67.1146 117.783 66.3046 117.38C65.5059 116.977 64.9219 116.408 64.5525 115.672C64.183 114.925 64.074 114.068 64.2254 113.101C64.3878 112.065 64.784 111.147 65.4141 110.347C66.0555 109.546 66.8574 108.915 67.8197 108.453C68.7933 107.979 69.8539 107.738 71.0016 107.729C72.1152 107.72 73.0714 107.929 73.8703 108.354C74.6691 108.78 75.259 109.372 75.64 110.13C76.0209 110.889 76.1302 111.774 75.9677 112.787C75.8163 113.777 75.4313 114.666 74.8125 115.455C74.1936 116.233 73.4029 116.847 72.4405 117.298ZM74.4318 101.719C73.5941 102.135 72.6696 102.347 71.6583 102.354C70.7038 102.362 69.8785 102.181 69.1824 101.811C68.4975 101.43 67.9933 100.9 67.6698 100.221C67.3576 99.5302 67.2717 98.724 67.4122 97.8025C67.564 96.8808 67.9156 96.0655 68.4669 95.3566C69.0181 94.6477 69.7126 94.0911 70.5504 93.6868C71.3994 93.271 72.3353 93.0591 73.358 93.051C74.3352 93.0434 75.1605 93.2244 75.8339 93.5941C76.5186 93.9524 77.0169 94.4655 77.329 95.1335C77.6411 95.8016 77.7155 96.5965 77.5523 97.5182C77.4004 98.4399 77.049 99.2665 76.4979 99.9982C75.9581 100.718 75.2694 101.292 74.4318 101.719ZM93.6646 121.87C95.4215 122.742 97.4988 123.169 99.8964 123.15C102.499 123.13 104.864 122.589 106.992 121.526C109.12 120.464 110.87 119.018 112.242 117.189C113.614 115.36 114.478 113.268 114.835 110.913C115.192 108.683 115.035 106.707 114.362 104.985C113.689 103.263 112.605 101.913 111.109 100.936C109.624 99.9595 107.83 99.4793 105.728 99.4958C104.194 99.5078 102.764 99.8032 101.439 100.382C100.114 100.96 99.0743 101.684 98.3198 102.554L98.1152 102.556L100.416 93.793L115.654 93.6733L116.595 87.6316L95.2549 87.7993L90.6781 106.245L97.0621 107.371C97.7156 106.65 98.552 106.075 99.5714 105.647C100.591 105.207 101.617 104.983 102.651 104.975C103.833 104.965 104.835 105.225 105.658 105.752C106.48 106.268 107.076 106.991 107.447 107.92C107.818 108.849 107.906 109.928 107.712 111.157C107.528 112.374 107.104 113.446 106.441 114.371C105.789 115.297 104.977 116.025 104.004 116.555C103.031 117.074 101.964 117.338 100.805 117.347C99.3395 117.359 98.1488 116.948 97.2331 116.114C96.3173 115.269 95.9224 114.176 96.0482 112.834L88.8893 112.89C88.621 114.892 88.9133 116.668 89.7664 118.218C90.6196 119.769 91.9189 120.986 93.6646 121.87ZM138.621 113.982L138.295 115.826C138.055 117.214 138.134 118.497 138.529 119.676C138.936 120.855 139.66 121.792 140.699 122.489C141.739 123.197 143.088 123.544 144.747 123.531C146.406 123.518 147.858 123.148 149.102 122.423C150.347 121.708 151.356 120.757 152.131 119.569C152.906 118.381 153.419 117.093 153.669 115.705L153.996 113.861C154.246 112.45 154.168 111.161 153.761 109.994C153.365 108.815 152.642 107.877 151.591 107.181C150.551 106.485 149.196 106.143 147.526 106.156C145.889 106.169 144.449 106.538 143.205 107.264C141.96 107.978 140.945 108.93 140.159 110.118C139.384 111.294 138.871 112.582 138.621 113.982ZM143.255 115.787L143.581 113.943C143.722 113.112 144.046 112.337 144.551 111.617C145.057 110.897 145.816 110.533 146.827 110.525C147.907 110.517 148.574 110.87 148.83 111.584C149.085 112.298 149.143 113.07 149.001 113.901L148.675 115.744C148.534 116.575 148.222 117.344 147.739 118.053C147.255 118.761 146.491 119.119 145.446 119.127C144.412 119.136 143.75 118.783 143.46 118.069C143.182 117.355 143.113 116.595 143.255 115.787ZM123.822 94.1205L123.564 95.9635C123.371 97.3628 123.472 98.6461 123.867 99.8135C124.274 100.981 124.986 101.913 126.003 102.609C127.02 103.306 128.358 103.648 130.017 103.635C131.676 103.622 133.139 103.263 134.406 102.56C135.673 101.846 136.694 100.9 137.469 99.7237C138.255 98.547 138.745 97.2533 138.939 95.8427L139.197 93.9997C139.39 92.5777 139.289 91.283 138.894 90.1156C138.498 88.9482 137.786 88.0163 136.758 87.3198C135.741 86.6232 134.398 86.2815 132.727 86.2946C131.102 86.3074 129.656 86.671 128.389 87.3855C127.122 88.1001 126.095 89.0456 125.309 90.2223C124.523 91.399 124.027 92.6984 123.822 94.1205ZM128.558 95.9242L128.817 94.0812C128.924 93.2736 129.23 92.5041 129.736 91.7728C130.253 91.0415 131.017 90.6718 132.029 90.6638C133.108 90.6554 133.77 91.0081 134.014 91.7221C134.258 92.4362 134.321 93.2084 134.203 94.0389L133.945 95.8819C133.826 96.7238 133.514 97.499 133.008 98.2075C132.514 98.9046 131.749 99.2572 130.715 99.2653C129.704 99.2733 129.059 98.9318 128.781 98.2407C128.514 97.5383 128.44 96.7661 128.558 95.9242ZM151.043 87.3609L121.523 122.503L126.227 122.466L155.747 87.324L151.043 87.3609Z" fill="url(#paint0_radial_33_25)"/>
<defs>
<radialGradient id="paint0_radial_33_25" cx="0" cy="0" r="1" gradientUnits="userSpaceOnUse" gradientTransform="translate(57.9105 -0.000869084) rotate(51.9812) scale(262.419 276.275)">
<stop stop-color="#8B13D0"/>
<stop offset="0.505" stop-color="#932BCF"/>
<stop offset="0.9999" stop-color="#190064"/>
</radialGradient>
</defs>
</svg>
