<svg width="218" height="207" viewBox="0 0 218 207" fill="none" xmlns="http://www.w3.org/2000/svg">
<path id="90" fill-rule="evenodd" clip-rule="evenodd" d="M160.188 12.8757C166.322 15.9791 167.708 23.8561 163.648 29.4045C159.856 34.5873 152.693 35.7922 146.904 33.011C131.845 25.7752 114.739 23.0001 97.8399 25.1996C77.0809 27.9013 58.1485 37.9122 44.7949 53.2483C31.4413 68.5843 24.6409 88.1263 25.7416 108.001C26.8422 127.876 35.7635 146.634 50.7374 160.556C65.7114 174.479 85.6451 182.55 106.588 183.171C127.531 183.792 147.955 176.917 163.812 163.909C179.669 150.901 189.802 132.708 192.203 112.937C194.091 97.3884 191.088 81.7558 183.726 67.9582C180.433 61.7864 181.595 53.8319 187.351 49.8565C192.722 46.1471 200.134 47.2702 203.489 52.8696C214.842 71.8182 219.629 93.7992 216.975 115.652C213.858 141.324 200.701 164.945 180.112 181.835C159.523 198.726 133.005 207.652 105.812 206.846C78.619 206.04 52.7368 195.559 33.2944 177.482C13.852 159.405 2.26846 135.05 0.839365 109.244C-0.589729 83.4378 8.23994 58.0643 25.5785 38.1517C42.9171 18.2391 67.4991 5.24083 94.4529 1.73279C117.158 -1.22224 140.15 2.73838 160.188 12.8757ZM78.6227 88.3902C77.0155 87.7778 75.2915 87.4789 73.4507 87.4933C70.9279 87.5018 68.6364 88.0141 66.5762 89.0303C64.5159 90.0466 62.8166 91.4463 61.4783 93.2296C60.1399 95.0015 59.2809 97.0311 58.9011 99.3182C58.5436 101.548 58.7069 103.536 59.3911 105.28C60.0753 107.025 61.1714 108.397 62.6793 109.397C64.1872 110.396 65.9979 110.888 68.1115 110.871C69.3614 110.861 70.5645 110.67 71.7207 110.297C72.8768 109.913 73.9407 109.365 74.9124 108.653C75.8955 107.941 76.7296 107.07 77.4147 106.042L77.6844 105.648C77.0984 109.176 76.0123 111.957 74.4259 113.992C72.8396 116.027 70.8874 117.054 68.5693 117.072C67.2512 117.083 66.2088 116.756 65.4422 116.091C64.6756 115.427 64.2758 114.441 64.2428 113.135L57.118 113.191C57.0539 115.157 57.4598 116.915 58.3356 118.465C59.2227 120.004 60.505 121.215 62.1825 122.1C63.8599 122.985 65.8634 123.418 68.1929 123.399C70.3178 123.383 72.2975 122.958 74.1319 122.125C75.9662 121.281 77.6101 120.064 79.0636 118.473C80.5284 116.882 81.7575 114.94 82.7509 112.648C83.7556 110.356 84.4965 107.748 84.9736 104.824C85.4937 101.604 85.5349 98.8874 85.097 96.6748C84.6705 94.4622 83.8895 92.6785 82.7538 91.3238C81.6181 89.969 80.2411 88.9911 78.6227 88.3902ZM69.8895 94.1863C70.9417 93.5984 72.0588 93.2999 73.2405 93.2906C74.3428 93.2819 75.2766 93.5303 76.0419 94.0357C76.8072 94.5297 77.358 95.2072 77.6943 96.0682C78.0419 96.9178 78.1347 97.8773 77.9726 98.9468C77.8431 99.8228 77.5543 100.66 77.106 101.459C76.669 102.247 76.1119 102.944 75.4349 103.552C74.7691 104.148 74.0228 104.62 73.1959 104.967C72.3804 105.315 71.5238 105.492 70.6261 105.499C69.5353 105.508 68.6129 105.271 67.8591 104.788C67.1166 104.294 66.5771 103.616 66.2408 102.755C65.9045 101.894 65.8117 100.929 65.9624 99.8594C66.1345 98.6307 66.5691 97.525 67.2659 96.5422C67.974 95.548 68.8486 94.7627 69.8895 94.1863ZM93.5582 121.342C95.4443 122.759 97.8533 123.456 100.785 123.433C103.717 123.41 106.347 122.673 108.677 121.223C111.007 119.762 112.95 117.673 114.509 114.956C116.067 112.227 117.149 108.946 117.755 105.112C118.362 101.289 118.302 98.0447 117.576 95.3798C116.862 92.7149 115.562 90.6853 113.676 89.291C111.79 87.8966 109.393 87.2109 106.484 87.2338C103.563 87.2567 100.938 87.9819 98.6086 89.4094C96.2901 90.8253 94.3516 92.8804 92.7932 95.5745C91.2461 98.2686 90.1637 101.522 89.5459 105.333C88.9395 109.156 88.9823 112.423 89.674 115.134C90.3772 117.844 91.6719 119.914 93.5582 121.342ZM107.02 114.247C105.524 116.271 103.771 117.29 101.76 117.306C100.442 117.316 99.3585 116.882 98.5107 116.002C97.6627 115.111 97.1068 113.774 96.8427 111.992C96.5786 110.199 96.6576 107.959 97.0797 105.274C97.7077 101.315 98.7753 98.3344 100.282 96.3339C101.801 94.3219 103.554 93.3081 105.543 93.2925C106.872 93.282 107.961 93.7167 108.809 94.5964C109.657 95.4761 110.207 96.8014 110.459 98.5722C110.723 100.332 110.644 102.531 110.221 105.171C109.583 109.199 108.515 112.224 107.02 114.247ZM140.73 113.966L140.404 115.809C140.165 117.197 140.243 118.481 140.639 119.66C141.046 120.838 141.769 121.776 142.809 122.472C143.848 123.18 145.198 123.527 146.857 123.514C148.516 123.501 149.967 123.132 151.212 122.406C152.456 121.692 153.466 120.741 154.241 119.553C155.015 118.365 155.528 117.077 155.778 115.688L156.105 113.845C156.355 112.434 156.277 111.144 155.87 109.977C155.474 108.798 154.751 107.861 153.7 107.165C152.66 106.468 151.305 106.127 149.635 106.14C147.999 106.152 146.558 106.522 145.314 107.247C144.07 107.962 143.054 108.913 142.268 110.101C141.493 111.278 140.981 112.566 140.73 113.966ZM145.364 115.77L145.69 113.927C145.832 113.096 146.155 112.321 146.661 111.601C147.167 110.881 147.925 110.517 148.936 110.509C150.016 110.5 150.683 110.853 150.939 111.567C151.195 112.281 151.252 113.053 151.111 113.884L150.784 115.727C150.643 116.558 150.331 117.328 149.848 118.036C149.365 118.744 148.6 119.103 147.555 119.111C146.521 119.119 145.859 118.766 145.569 118.053C145.291 117.339 145.223 116.578 145.364 115.77ZM125.932 94.1039L125.674 95.9469C125.48 97.3462 125.581 98.6295 125.977 99.7969C126.383 100.964 127.095 101.896 128.112 102.593C129.129 103.289 130.467 103.631 132.126 103.618C133.785 103.605 135.248 103.247 136.515 102.544C137.783 101.829 138.804 100.884 139.579 99.7071C140.365 98.5304 140.855 97.2368 141.048 95.8261L141.306 93.9831C141.5 92.5611 141.399 91.2664 141.003 90.099C140.608 88.9316 139.896 87.9997 138.867 87.3032C137.851 86.6066 136.507 86.2649 134.836 86.278C133.212 86.2908 131.765 86.6544 130.498 87.369C129.231 88.0835 128.204 89.0291 127.418 90.2057C126.632 91.3824 126.137 92.6818 125.932 94.1039ZM130.668 95.9077L130.926 94.0647C131.033 93.257 131.34 92.4875 131.845 91.7562C132.362 91.0249 133.127 90.6552 134.138 90.6473C135.217 90.6388 135.879 90.9916 136.123 91.7056C136.368 92.4196 136.431 93.1918 136.312 94.0223L136.054 95.8653C135.936 96.7072 135.623 97.4824 135.118 98.1909C134.623 98.888 133.859 99.2406 132.825 99.2488C131.813 99.2567 131.169 98.9152 130.89 98.2242C130.624 97.5217 130.549 96.7495 130.668 95.9077ZM153.152 87.3444L123.632 122.486L128.336 122.45L157.857 87.3074L153.152 87.3444Z" fill="url(#paint0_radial_33_26)"/>
<defs>
<radialGradient id="paint0_radial_33_26" cx="0" cy="0" r="1" gradientUnits="userSpaceOnUse" gradientTransform="translate(57.9105 -0.000861121) rotate(51.9812) scale(262.419 276.275)">
<stop stop-color="#8B13D0"/>
<stop offset="0.505" stop-color="#932BCF"/>
<stop offset="0.9999" stop-color="#190064"/>
</radialGradient>
</defs>
</svg>
