<svg width="455" height="461" viewBox="0 0 455 461" fill="none" xmlns="http://www.w3.org/2000/svg">
<g id="Svg-2" clip-path="url(#clip0_15_47)">
<path id="Vector" d="M415.113 460.54V414.309C415.113 414.309 432.307 447.085 415.113 460.54Z" fill="#F1F1F1"/>
<path id="Vector_2" d="M416.175 460.532L383.672 429.267C383.672 429.267 418.343 438.16 416.175 460.532Z" fill="#F1F1F1"/>
<g id="contact-card">
<path id="Vector_3" d="M301.537 203.989L129.06 309.616C128.457 309.985 127.738 310.088 127.062 309.902C126.386 309.716 125.808 309.257 125.455 308.625L14.5417 109.781C14.1898 109.149 14.0917 108.396 14.269 107.688C14.4462 106.979 14.8843 106.374 15.4872 106.004L187.963 0.376906C188.567 0.00818266 189.286 -0.0945851 189.962 0.0911475C190.638 0.27688 191.215 0.735947 191.569 1.36764L302.482 200.212C302.834 200.844 302.932 201.597 302.755 202.305C302.578 203.014 302.14 203.619 301.537 203.989Z" fill="white"/>
<path id="Vector_4" d="M301.537 203.989L129.06 309.616C128.457 309.985 127.738 310.088 127.062 309.902C126.386 309.716 125.808 309.257 125.455 308.625L14.5417 109.781C14.1898 109.149 14.0917 108.396 14.269 107.688C14.4462 106.979 14.8843 106.374 15.4872 106.004L187.963 0.376906C188.567 0.00818266 189.286 -0.0945851 189.962 0.0911475C190.638 0.27688 191.215 0.735947 191.569 1.36764L302.482 200.212C302.834 200.844 302.932 201.597 302.755 202.305C302.578 203.014 302.14 203.619 301.537 203.989ZM16.0192 106.957C15.6574 107.179 15.3946 107.543 15.2882 107.968C15.1818 108.393 15.2407 108.844 15.4519 109.224L126.365 308.068C126.577 308.447 126.924 308.722 127.33 308.834C127.735 308.945 128.166 308.884 128.529 308.662L301.005 203.036C301.367 202.814 301.629 202.45 301.736 202.025C301.842 201.6 301.783 201.149 301.572 200.769L190.659 1.925C190.447 1.54597 190.1 1.27051 189.694 1.15907C189.289 1.04763 188.858 1.1093 188.495 1.33056L16.0192 106.957Z" fill="#3F3D56"/>
<path id="Vector_5" d="M126.888 126.759L84.1098 152.957C83.5061 153.326 82.7875 153.428 82.1117 153.243C81.4358 153.057 80.8578 152.598 80.5045 151.966L55.5024 107.143C55.1505 106.51 55.0525 105.757 55.2297 105.049C55.407 104.341 55.8451 103.735 56.448 103.365L99.2257 77.1674C99.8294 76.7987 100.548 76.6959 101.224 76.8817C101.9 77.0674 102.478 77.5265 102.831 78.1582L127.833 122.982C128.185 123.614 128.283 124.367 128.106 125.075C127.929 125.783 127.49 126.389 126.888 126.759ZM56.9799 104.319C56.6182 104.541 56.3553 104.904 56.2489 105.329C56.1426 105.754 56.2015 106.206 56.4126 106.585L81.4147 151.409C81.6266 151.788 81.9734 152.063 82.379 152.175C82.7845 152.286 83.2157 152.224 83.5779 152.003L126.356 125.806C126.717 125.583 126.98 125.22 127.087 124.795C127.193 124.37 127.134 123.918 126.923 123.539L101.921 78.7156C101.709 78.3365 101.362 78.0611 100.957 77.9496C100.551 77.8382 100.12 77.8999 99.7577 78.1211L56.9799 104.319Z" fill="#F2F2F2"/>
<path id="Vector_6" d="M117.659 139.768L74.8813 165.965C74.338 166.297 73.6913 166.39 73.083 166.223C72.4747 166.055 71.9545 165.642 71.6366 165.074L46.6345 120.25C46.3178 119.681 46.2295 119.003 46.389 118.366C46.5486 117.729 46.9429 117.184 47.4854 116.85L90.2632 90.6528C90.8065 90.321 91.4532 90.2285 92.0615 90.3956C92.6698 90.5628 93.19 90.976 93.508 91.5445L118.51 136.368C118.827 136.937 118.915 137.615 118.755 138.252C118.596 138.89 118.202 139.435 117.659 139.768Z" fill="#6C63FF"/>
<path id="Vector_7" d="M220.911 105.963L87.1164 187.9C86.5733 188.233 85.9263 188.326 85.3178 188.159C84.7092 187.991 84.1891 187.578 83.8716 187.009C83.5542 186.44 83.4655 185.762 83.6251 185.124C83.7847 184.486 84.1794 183.941 84.7226 183.609L218.517 101.671C218.786 101.507 219.083 101.399 219.392 101.355C219.7 101.31 220.014 101.33 220.315 101.413C220.617 101.496 220.9 101.64 221.148 101.837C221.396 102.035 221.604 102.281 221.762 102.563C221.919 102.845 222.021 103.156 222.064 103.48C222.106 103.803 222.087 104.132 222.008 104.448C221.929 104.763 221.792 105.06 221.603 105.32C221.415 105.58 221.18 105.798 220.911 105.963Z" fill="#CCCCCC"/>
<path id="Vector_8" d="M196.845 140.533L95.3618 202.682C95.0928 202.847 94.7956 202.955 94.487 202.999C94.1784 203.043 93.8644 203.024 93.5631 202.941C92.9546 202.774 92.4344 202.36 92.117 201.791C91.7995 201.222 91.7109 200.544 91.8704 199.906C92.03 199.269 92.4248 198.723 92.9679 198.391L194.451 136.241C194.72 136.076 195.018 135.969 195.326 135.925C195.635 135.88 195.949 135.9 196.25 135.983C196.551 136.066 196.834 136.21 197.082 136.407C197.33 136.604 197.539 136.851 197.696 137.133C197.853 137.415 197.956 137.726 197.998 138.049C198.041 138.373 198.022 138.702 197.943 139.017C197.864 139.333 197.726 139.629 197.538 139.889C197.349 140.149 197.114 140.368 196.845 140.533Z" fill="#CCCCCC"/>
<path id="Vector_9" d="M190.134 51.8813L130.973 88.1121C130.43 88.4448 129.783 88.5377 129.175 88.3705C128.566 88.2033 128.046 87.7896 127.728 87.2205C127.411 86.6514 127.322 85.9735 127.482 85.3359C127.641 84.6982 128.036 84.1532 128.579 83.8205L187.74 47.5898C188.283 47.2571 188.93 47.1642 189.539 47.3314C189.84 47.4142 190.123 47.5584 190.371 47.7557C190.619 47.953 190.828 48.1996 190.985 48.4814C191.142 48.7632 191.245 49.0747 191.287 49.398C191.329 49.7214 191.31 50.0503 191.231 50.366C191.152 50.6818 191.015 50.9781 190.826 51.2381C190.638 51.4981 190.403 51.7166 190.134 51.8813Z" fill="#CCCCCC"/>
<path id="Vector_10" d="M183.615 75.7055L139.219 102.894C138.95 103.059 138.652 103.167 138.344 103.211C138.035 103.255 137.721 103.235 137.42 103.153C137.119 103.07 136.836 102.926 136.588 102.728C136.34 102.531 136.131 102.284 135.974 102.003C135.817 101.721 135.714 101.409 135.672 101.086C135.629 100.763 135.648 100.434 135.727 100.118C135.806 99.8024 135.944 99.506 136.132 99.246C136.32 98.986 136.556 98.7675 136.825 98.6028L181.221 71.4139C181.764 71.0813 182.411 70.9884 183.02 71.1556C183.628 71.3228 184.148 71.7365 184.466 72.3056C184.783 72.8747 184.872 73.5526 184.712 74.1902C184.553 74.8279 184.158 75.3729 183.615 75.7055Z" fill="#CCCCCC"/>
<path id="Vector_11" d="M237.401 135.527L103.607 217.465C103.064 217.797 102.417 217.89 101.808 217.723C101.2 217.556 100.68 217.142 100.362 216.573C100.045 216.004 99.9562 215.326 100.116 214.688C100.275 214.051 100.67 213.506 101.213 213.173L235.008 131.236C235.551 130.903 236.198 130.81 236.806 130.977C237.415 131.145 237.935 131.558 238.252 132.127C238.57 132.696 238.658 133.374 238.499 134.012C238.339 134.65 237.944 135.195 237.401 135.527Z" fill="#CCCCCC"/>
<path id="Vector_12" d="M213.336 170.097L111.852 232.247C111.584 232.411 111.286 232.519 110.978 232.563C110.669 232.608 110.355 232.588 110.054 232.505C109.753 232.422 109.47 232.278 109.222 232.081C108.973 231.884 108.765 231.637 108.608 231.355C108.45 231.073 108.348 230.762 108.306 230.439C108.263 230.115 108.282 229.786 108.361 229.47C108.44 229.155 108.578 228.858 108.766 228.598C108.954 228.338 109.19 228.12 109.459 227.955L210.942 165.805C211.211 165.641 211.508 165.533 211.817 165.489C212.125 165.445 212.439 165.464 212.741 165.547C213.042 165.63 213.325 165.774 213.573 165.971C213.821 166.169 214.03 166.415 214.187 166.697C214.344 166.979 214.447 167.29 214.489 167.614C214.531 167.937 214.512 168.266 214.433 168.582C214.354 168.897 214.217 169.194 214.028 169.454C213.84 169.714 213.605 169.932 213.336 170.097Z" fill="#CCCCCC"/>
<path id="Vector_13" d="M253.892 165.092L120.098 247.029C119.829 247.194 119.532 247.301 119.223 247.346C118.914 247.39 118.601 247.37 118.299 247.287C117.998 247.204 117.715 247.06 117.467 246.863C117.219 246.666 117.01 246.419 116.853 246.137C116.696 245.855 116.593 245.544 116.551 245.221C116.509 244.897 116.528 244.568 116.607 244.253C116.686 243.937 116.823 243.641 117.011 243.381C117.2 243.121 117.435 242.902 117.704 242.737L251.498 160.8C251.767 160.635 252.064 160.528 252.373 160.483C252.682 160.439 252.996 160.459 253.297 160.542C253.598 160.624 253.881 160.769 254.129 160.966C254.377 161.163 254.586 161.41 254.743 161.692C254.9 161.973 255.003 162.285 255.045 162.608C255.087 162.932 255.069 163.261 254.99 163.576C254.911 163.892 254.773 164.188 254.585 164.448C254.396 164.708 254.161 164.927 253.892 165.092Z" fill="#CCCCCC"/>
<path id="Vector_14" d="M262.137 179.874L128.343 261.811C128.074 261.976 127.777 262.083 127.468 262.128C127.16 262.172 126.846 262.152 126.545 262.069C126.243 261.987 125.96 261.842 125.712 261.645C125.464 261.448 125.256 261.201 125.098 260.919C124.941 260.638 124.839 260.326 124.796 260.003C124.754 259.679 124.773 259.351 124.852 259.035C124.931 258.719 125.068 258.423 125.257 258.163C125.445 257.903 125.68 257.684 125.949 257.52L259.744 175.582C260.013 175.417 260.31 175.31 260.618 175.266C260.927 175.221 261.241 175.241 261.542 175.324C261.844 175.407 262.126 175.551 262.374 175.748C262.623 175.945 262.831 176.192 262.988 176.474C263.146 176.756 263.248 177.067 263.291 177.39C263.333 177.714 263.314 178.043 263.235 178.358C263.156 178.674 263.018 178.971 262.83 179.231C262.642 179.491 262.406 179.709 262.137 179.874Z" fill="#CCCCCC"/>
<path id="Vector_15" d="M218.871 237.419C220.73 235.125 222.403 232.673 223.873 230.088C225.192 227.756 226.485 225.263 226.776 222.528C226.924 221.364 226.809 220.179 226.438 219.07C226.067 217.961 225.452 216.96 224.642 216.147C223.859 215.391 222.867 214.915 221.81 214.789C220.752 214.663 219.683 214.893 218.759 215.446C217.823 216.009 217.05 216.826 216.521 217.812C215.993 218.797 215.728 219.914 215.756 221.044C215.832 222.289 216.175 223.499 216.76 224.585C217.344 225.671 218.155 226.605 219.132 227.316C223.087 230.318 229.263 230.162 233.478 227.877C238.226 225.304 240.679 218.571 236.949 213.962C236.173 213.004 234.882 214.075 235.076 215.109C235.323 216.506 236.069 217.751 237.162 218.591C238.256 219.43 239.614 219.801 240.959 219.627C242.305 219.453 243.536 218.747 244.401 217.653C245.266 216.56 245.701 215.162 245.615 213.744L243.939 214.771C245.994 215.725 248.253 216.095 250.489 215.844C252.724 215.593 254.857 214.729 256.673 213.34C257.571 212.656 258.373 211.843 259.056 210.926C259.877 209.804 261.256 209.079 262.372 208.271L270.417 202.447C271.6 201.59 270.475 199.548 269.282 200.412L261.996 205.687C260.782 206.566 259.56 207.434 258.353 208.325C257.49 208.961 256.96 209.988 256.175 210.744C254.688 212.145 252.853 213.074 250.882 213.423C248.911 213.773 246.886 213.528 245.042 212.717C244.871 212.621 244.678 212.572 244.483 212.575C244.288 212.579 244.098 212.635 243.929 212.738C243.761 212.841 243.621 212.988 243.522 213.164C243.423 213.34 243.37 213.54 243.366 213.744C243.455 214.59 243.221 215.438 242.715 216.105C242.21 216.771 241.474 217.201 240.667 217.301C239.861 217.401 239.049 217.163 238.409 216.639C237.769 216.115 237.353 215.347 237.251 214.503L235.378 215.65C237.784 218.623 236.182 223.183 233.41 225.178C230.31 227.409 225.729 227.796 222.235 226.409C221.378 226.1 220.59 225.609 219.922 224.967C219.254 224.325 218.72 223.545 218.353 222.677C218.012 221.893 217.915 221.016 218.075 220.171C218.235 219.325 218.644 218.554 219.244 217.965C219.765 217.426 220.464 217.121 221.196 217.112C221.927 217.104 222.633 217.394 223.164 217.921C223.743 218.54 224.167 219.299 224.4 220.13C224.633 220.961 224.668 221.84 224.5 222.688C224.14 225.049 222.894 227.227 221.735 229.243C220.412 231.541 218.916 233.725 217.261 235.773C216.333 236.924 217.933 238.582 218.871 237.419Z" fill="#6C63FF"/>
</g>
<path id="Vector_16" d="M320.057 451.997H311.865L307.968 418.888L320.058 418.889L320.057 451.997Z" fill="#FFB7B7"/>
<path id="Vector_17" d="M322.146 460.318L295.732 460.317V459.967C295.732 457.11 296.815 454.37 298.743 452.35C300.671 450.329 303.286 449.194 306.013 449.194H306.014L322.147 449.195L322.146 460.318Z" fill="#2F2E41"/>
<path id="Vector_18" d="M245.671 451.807L238.138 448.434L246.966 416.383L258.084 421.36L245.671 451.807Z" fill="#FFB7B7"/>
<path id="Vector_19" d="M244.473 460.318L220.182 449.445L220.313 449.123C221.385 446.495 223.408 444.421 225.938 443.357C228.469 442.293 231.299 442.326 233.807 443.448L233.807 443.448L248.643 450.089L244.473 460.318Z" fill="#2F2E41"/>
<path id="Vector_20" d="M280.239 300.627L279.646 310.686L296.962 312.627L315.08 314.659L309.747 299.385L280.239 300.627Z" fill="#FFB7B7"/>
<path id="Vector_21" d="M279.101 310.815L272.374 261.677L284.033 257.673L287.458 252.752L304.123 253.786L306.569 259.528L315.455 263.928L314.09 290.502L315.086 312.732L279.101 310.815Z" fill="#2F2E41"/>
<g id="Woman-right-hand">
<path id="Vector_22" d="M238.84 293.455C239.034 293.664 239.212 293.888 239.372 294.127L264.286 293.488L267.193 287.923L275.781 291.421L271.55 301.797C271.208 302.635 270.616 303.335 269.862 303.79C269.109 304.246 268.235 304.433 267.371 304.324L239.222 300.761C238.558 301.641 237.654 302.29 236.63 302.619C235.606 302.948 234.511 302.943 233.489 302.604C232.468 302.265 231.57 301.608 230.914 300.721C230.257 299.833 229.874 298.758 229.816 297.637C229.757 296.516 230.026 295.404 230.585 294.447C231.145 293.49 231.969 292.734 232.949 292.28C233.929 291.826 235.017 291.695 236.069 291.905C237.122 292.115 238.088 292.655 238.84 293.455Z" fill="#FFB7B7"/>
<path id="Vector_23" d="M274.867 297.647L263.007 292.675L263.058 292.454C263.109 292.231 268.156 270.129 268.826 266.577C269.525 262.877 272.075 261.854 272.184 261.812L272.263 261.782L276.956 263.279L279.018 280.249L274.867 297.647Z" fill="#2F2E41"/>
</g>
<path id="Vector_24" d="M251.772 445.988L235.985 442.594L261.217 369.64L269.853 344.757C269.853 344.757 275.33 324.805 277.805 317.084L279.298 306.724L314.65 310.825C314.65 310.825 324.524 326.019 321.524 350.784L322.881 443.867L307.094 444.715L293.871 350.836L270.663 402.3C270.663 402.3 263.348 424.261 258.114 429.021L251.772 445.988Z" fill="#2F2E41"/>
<path id="Vector_25" d="M300.473 314.28C300.751 314.273 301.029 314.289 301.305 314.328L317.797 294.75L315.879 288.733L324.167 284.512L328.551 294.819C328.905 295.651 328.992 296.582 328.799 297.47C328.605 298.359 328.142 299.158 327.478 299.747L305.846 318.953C306.011 320.062 305.85 321.198 305.384 322.208C304.918 323.219 304.17 324.057 303.238 324.611C302.306 325.165 301.236 325.409 300.169 325.31C299.102 325.211 298.089 324.774 297.265 324.057C296.44 323.34 295.844 322.377 295.555 321.297C295.266 320.216 295.297 319.068 295.646 318.007C295.994 316.946 296.642 316.02 297.505 315.355C298.367 314.689 299.403 314.314 300.473 314.28Z" fill="#FFB7B7"/>
<path id="Vector_26" d="M316.481 296.655L309.601 279.699L312.284 267.887L315.176 264.06C315.387 263.965 315.616 263.917 315.846 263.92C316.076 263.922 316.304 263.974 316.514 264.073C317.58 264.523 318.488 265.901 319.212 268.169L325.66 287.413L316.481 296.655Z" fill="#2F2E41"/>
<g id="Woman-head">
<path id="Vector_27" d="M280.787 246.469V233.685C280.787 229.142 282.51 224.785 285.575 221.572C288.641 218.36 292.8 216.555 297.136 216.555C301.471 216.555 305.63 218.36 308.696 221.572C311.762 224.785 313.484 229.142 313.484 233.685V246.469C313.483 247.079 313.252 247.664 312.84 248.095C312.428 248.527 311.87 248.769 311.288 248.77H282.983C282.401 248.769 281.843 248.527 281.431 248.095C281.019 247.664 280.788 247.079 280.787 246.469Z" fill="#2F2E41"/>
<path id="Vector_28" d="M293.776 248.473C300.396 248.473 305.762 242.85 305.762 235.913C305.762 228.977 300.396 223.354 293.776 223.354C287.156 223.354 281.79 228.977 281.79 235.913C281.79 242.85 287.156 248.473 293.776 248.473Z" fill="#FFB7B7"/>
<path id="Vector_29" d="M276.919 234.708C276.923 231.115 278.287 227.671 280.712 225.131C283.136 222.59 286.423 221.161 289.852 221.157H292.292C295.721 221.161 299.008 222.59 301.432 225.131C303.857 227.671 305.22 231.115 305.224 234.708V234.964H300.068L298.309 229.803L297.957 234.964H295.292L294.405 232.36L294.227 234.964H276.92L276.919 234.708Z" fill="#2F2E41"/>
<path id="Vector_30" d="M292.597 250.208C292.354 249.864 292.21 249.456 292.179 249.03C292.149 248.604 292.234 248.178 292.425 247.801C295.01 242.647 298.631 233.125 293.825 227.252L293.48 226.83H307.431V248.777L294.757 251.121C294.629 251.144 294.499 251.156 294.369 251.156C294.023 251.156 293.682 251.07 293.374 250.906C293.066 250.741 292.799 250.501 292.597 250.208Z" fill="#2F2E41"/>
</g>
<path id="Vector_31" d="M129.854 444.765L137.258 447.538L150.986 418.935L140.059 414.844L129.854 444.765Z" fill="#9F616A"/>
<path id="Vector_32" d="M125.401 451.578L128.83 441.525L143.41 446.985C145.872 447.911 147.884 449.822 149.003 452.299C150.122 454.777 150.258 457.618 149.381 460.201L149.273 460.517L125.401 451.578Z" fill="#2F2E41"/>
<path id="Vector_33" d="M177.996 452.438L185.858 452.437L189.599 420.663L177.995 420.663L177.996 452.438Z" fill="#9F616A"/>
<path id="Vector_34" d="M175.991 449.748L191.474 449.748H191.475C192.77 449.748 194.054 450.015 195.251 450.535C196.448 451.054 197.536 451.816 198.452 452.776C199.368 453.736 200.095 454.876 200.591 456.13C201.087 457.384 201.342 458.729 201.342 460.087V460.423L175.991 460.424L175.991 449.748Z" fill="#2F2E41"/>
<path id="Vector_35" d="M160.079 249.435L163.498 242.356C163.498 242.356 176.236 245.7 177.393 253.435L160.079 249.435Z" fill="#F1F1F1"/>
<path id="Vector_36" d="M145.971 330.382L155.269 384.751L130.58 430.502L145.329 436.55L170.34 392.201L173.546 380.106L175.47 443.269L188.772 442.846L194.871 383.867L185.089 329.038L145.971 330.382Z" fill="#2F2E41"/>
<path id="Vector_37" d="M163.622 343.235C149.962 343.235 141.288 340.497 141.094 340.454L140.78 340.383L147.895 305.818L148.215 273.934C148.215 260.423 156.702 250.462 157.879 249.543C158.078 248.723 158.444 247.958 158.954 247.301C159.464 246.645 160.104 246.113 160.83 245.743C163.661 244.397 167.12 246.012 167.266 246.082L177.648 250.161L177.697 250.312C177.822 250.698 191.498 297.741 191.498 297.741C191.498 297.741 190.67 338.844 190.382 340.19C190.382 340.19 171.211 343.235 163.622 343.235Z" fill="#3F3D56"/>
<path id="Vector_38" opacity="0.2" d="M158.471 276.542L183.022 312.434L186.648 295.673L158.471 276.542Z" fill="black"/>
<g id="Man-hand">
<path id="Vector_39" d="M235.443 300.963C234.753 301.536 233.951 301.943 233.094 302.155C232.238 302.367 231.347 302.381 230.485 302.193C229.623 302.006 228.81 301.623 228.105 301.071C227.399 300.519 226.818 299.812 226.401 298.999L205.27 302.543L209.848 291.924L229.213 290.186C230.562 289.544 232.09 289.442 233.506 289.901C234.922 290.36 236.128 291.347 236.896 292.675C237.664 294.004 237.941 295.581 237.673 297.109C237.405 298.636 236.612 300.008 235.443 300.963Z" fill="#9F616A"/>
<path id="Vector_40" d="M210.936 291.32L218.529 290.539L220.633 301.638L211.079 301.815L210.936 291.32Z" fill="#F1F1F1"/>
<path id="Vector_41" d="M217.16 305.505L179.973 302.035L161.197 270.745L161.139 270.469C160.606 267.913 160.979 265.241 162.188 262.952C163.398 260.663 165.361 258.913 167.711 258.03C170.062 257.147 172.639 257.19 174.961 258.152C177.283 259.113 179.192 260.928 180.331 263.256L191.353 285.784L213.599 289.308L217.16 305.505Z" fill="#3F3D56"/>
</g>
<g id="Man-head">
<path id="Vector_42" d="M174.118 240.127C181.868 240.127 188.151 233.544 188.151 225.423C188.151 217.302 181.868 210.719 174.118 210.719C166.368 210.719 160.085 217.302 160.085 225.423C160.085 233.544 166.368 240.127 174.118 240.127Z" fill="#9F616A"/>
<path id="Vector_43" d="M162.165 238.189L173.812 238.627C174.522 238.654 176.449 230.625 176.701 228.96C176.901 227.876 177.47 226.904 178.303 226.228C179.136 225.551 180.175 225.215 181.227 225.283C182.099 225.369 184.297 223.662 186.566 221.641C190.873 217.804 190.649 210.598 185.918 207.355C185.788 207.267 185.662 207.186 185.537 207.113C182.552 205.362 179.06 204.774 175.64 204.729C172.539 204.689 169.351 205.098 166.619 206.636C161.722 209.392 159.116 215.417 158.887 221.237C158.658 227.057 160.439 232.748 162.459 238.175" fill="#2F2E41"/>
</g>
<path id="Vector_44" d="M454.148 461H0.60992C0.448159 461 0.293023 460.933 0.178641 460.813C0.0642587 460.693 0 460.531 0 460.361C0 460.192 0.0642587 460.029 0.178641 459.909C0.293023 459.789 0.448159 459.722 0.60992 459.722H454.39C454.552 459.722 454.707 459.789 454.821 459.909C454.936 460.029 455 460.192 455 460.361C455 460.714 454.484 461 454.148 461Z" fill="#CBCBCB"/>
</g>
<defs>
<clipPath id="clip0_15_47">
<rect width="455" height="461" fill="white"/>
</clipPath>
</defs>
</svg>
